<svg id="Layer_1" data-name="Layer 1" xmlns="http://www.w3.org/2000/svg" viewBox="0 0 24 24" stroke-width="1.5" width="24" height="24" color="#22b926"><defs><style>.cls-637a50fc15c5759009400670-1{fill:none;stroke:currentColor;stroke-miterlimit:10;}</style></defs><rect class="cls-637a50fc15c5759009400670-1" x="1.5" y="9.11" width="21" height="13.36" rx="1.91"></rect><line class="cls-637a50fc15c5759009400670-1" x1="8.18" y1="18.66" x2="15.82" y2="18.66"></line><line class="cls-637a50fc15c5759009400670-1" x1="5.32" y1="15.8" x2="7.23" y2="15.8"></line><line class="cls-637a50fc15c5759009400670-1" x1="9.14" y1="15.8" x2="11.05" y2="15.8"></line><line class="cls-637a50fc15c5759009400670-1" x1="12.95" y1="15.8" x2="14.86" y2="15.8"></line><line class="cls-637a50fc15c5759009400670-1" x1="16.77" y1="15.8" x2="18.68" y2="15.8"></line><line class="cls-637a50fc15c5759009400670-1" x1="5.32" y1="12.93" x2="7.23" y2="12.93"></line><line class="cls-637a50fc15c5759009400670-1" x1="9.14" y1="12.93" x2="11.05" y2="12.93"></line><line class="cls-637a50fc15c5759009400670-1" x1="12.95" y1="12.93" x2="14.86" y2="12.93"></line><line class="cls-637a50fc15c5759009400670-1" x1="16.77" y1="12.93" x2="18.68" y2="12.93"></line><path class="cls-637a50fc15c5759009400670-1" d="M8.18,9.11V3.39a1.91,1.91,0,0,1,1.91-1.91h0A1.9,1.9,0,0,1,12,3.39h0A1.91,1.91,0,0,0,13.91,5.3h0a1.92,1.92,0,0,0,1.91-1.91V.52"></path></svg>